<mxfile host="app.diagrams.net" modified="2021-09-15T17:03:24.379Z" agent="5.0 (Windows NT 10.0; Win64; x64) AppleWebKit/537.36 (KHTML, like Gecko) Chrome/93.0.4577.63 Safari/537.36" etag="cZF0w_rUIHrBFMUXXrL4" version="15.1.1" type="github">
  <diagram id="vEiFNSuQm7W1llwdc2eL" name="Page-1">
    <mxGraphModel dx="1451" dy="1277" grid="1" gridSize="10" guides="1" tooltips="1" connect="1" arrows="1" fold="1" page="1" pageScale="1" pageWidth="583" pageHeight="827" math="0" shadow="0">
      <root>
        <mxCell id="0" />
        <mxCell id="1" parent="0" />
        <mxCell id="oWDYErXDNjj5TqssKDUu-1" value="Seats" style="rounded=0;whiteSpace=wrap;html=1;sketch=0;strokeColor=#AF45ED;fillColor=#F694C1;" vertex="1" parent="1">
          <mxGeometry x="-110" y="130" width="50" height="20" as="geometry" />
        </mxCell>
        <mxCell id="oWDYErXDNjj5TqssKDUu-2" value="Seats_Id" style="ellipse;whiteSpace=wrap;html=1;rounded=0;sketch=0;fontColor=#000000;strokeColor=#AF45ED;fillColor=#F694C1;" vertex="1" parent="1">
          <mxGeometry x="-160" y="60" width="60" height="30" as="geometry" />
        </mxCell>
        <mxCell id="oWDYErXDNjj5TqssKDUu-3" value="Seat_name" style="ellipse;whiteSpace=wrap;html=1;rounded=0;sketch=0;fontColor=#000000;strokeColor=#AF45ED;fillColor=#F694C1;" vertex="1" parent="1">
          <mxGeometry x="-105" y="20" width="60" height="30" as="geometry" />
        </mxCell>
        <mxCell id="oWDYErXDNjj5TqssKDUu-4" value="no of&amp;nbsp;&lt;br&gt;seat" style="ellipse;whiteSpace=wrap;html=1;rounded=0;sketch=0;fontColor=#000000;strokeColor=#AF45ED;fillColor=#F694C1;" vertex="1" parent="1">
          <mxGeometry x="-40" y="60" width="60" height="30" as="geometry" />
        </mxCell>
        <mxCell id="oWDYErXDNjj5TqssKDUu-5" value="" style="endArrow=none;html=1;fontColor=#000000;strokeColor=#60E696;fillColor=#F694C1;exitX=0.5;exitY=0;exitDx=0;exitDy=0;fontStyle=1" edge="1" parent="1" source="oWDYErXDNjj5TqssKDUu-1">
          <mxGeometry width="50" height="50" relative="1" as="geometry">
            <mxPoint x="-60" y="120" as="sourcePoint" />
            <mxPoint x="-80" y="51" as="targetPoint" />
            <Array as="points" />
          </mxGeometry>
        </mxCell>
        <mxCell id="oWDYErXDNjj5TqssKDUu-6" value="" style="endArrow=none;html=1;fontColor=#000000;strokeColor=#60E696;fillColor=#F694C1;fontStyle=1;entryX=0.033;entryY=0.733;entryDx=0;entryDy=0;entryPerimeter=0;exitX=0.75;exitY=0;exitDx=0;exitDy=0;" edge="1" parent="1" source="oWDYErXDNjj5TqssKDUu-1" target="oWDYErXDNjj5TqssKDUu-4">
          <mxGeometry width="50" height="50" relative="1" as="geometry">
            <mxPoint x="-55" y="120" as="sourcePoint" />
            <mxPoint x="-55" y="61" as="targetPoint" />
            <Array as="points" />
          </mxGeometry>
        </mxCell>
        <mxCell id="oWDYErXDNjj5TqssKDUu-7" value="" style="endArrow=none;html=1;fontColor=#000000;strokeColor=#60E696;fillColor=#F694C1;fontStyle=1;entryX=0.5;entryY=1;entryDx=0;entryDy=0;exitX=0.25;exitY=0;exitDx=0;exitDy=0;" edge="1" parent="1" source="oWDYErXDNjj5TqssKDUu-1" target="oWDYErXDNjj5TqssKDUu-2">
          <mxGeometry width="50" height="50" relative="1" as="geometry">
            <mxPoint x="-42.5" y="140" as="sourcePoint" />
            <mxPoint x="-28.019999999999982" y="91.99000000000001" as="targetPoint" />
            <Array as="points" />
          </mxGeometry>
        </mxCell>
        <mxCell id="oWDYErXDNjj5TqssKDUu-8" value="Theater" style="rounded=0;whiteSpace=wrap;html=1;sketch=0;fontColor=#000000;strokeColor=#AF45ED;fillColor=#F694C1;" vertex="1" parent="1">
          <mxGeometry x="-105" y="252.5" width="60" height="30" as="geometry" />
        </mxCell>
        <mxCell id="oWDYErXDNjj5TqssKDUu-9" value="has" style="rhombus;whiteSpace=wrap;html=1;rounded=0;sketch=0;fontColor=#000000;strokeColor=#AF45ED;fillColor=#F694C1;" vertex="1" parent="1">
          <mxGeometry x="-125" y="180" width="80" height="30" as="geometry" />
        </mxCell>
        <mxCell id="oWDYErXDNjj5TqssKDUu-10" value="" style="endArrow=none;html=1;fontColor=#000000;strokeColor=#60E696;fillColor=#F694C1;exitX=0.367;exitY=-0.067;exitDx=0;exitDy=0;exitPerimeter=0;entryX=0.5;entryY=1;entryDx=0;entryDy=0;" edge="1" parent="1" source="oWDYErXDNjj5TqssKDUu-8" target="oWDYErXDNjj5TqssKDUu-9">
          <mxGeometry width="50" height="50" relative="1" as="geometry">
            <mxPoint x="140" y="200" as="sourcePoint" />
            <mxPoint x="-90" y="230" as="targetPoint" />
            <Array as="points" />
          </mxGeometry>
        </mxCell>
        <mxCell id="oWDYErXDNjj5TqssKDUu-11" value="" style="endArrow=none;html=1;fontColor=#000000;strokeColor=#60E696;fillColor=#F694C1;entryX=0.5;entryY=1;entryDx=0;entryDy=0;exitX=0.5;exitY=0;exitDx=0;exitDy=0;" edge="1" parent="1" source="oWDYErXDNjj5TqssKDUu-9" target="oWDYErXDNjj5TqssKDUu-1">
          <mxGeometry width="50" height="50" relative="1" as="geometry">
            <mxPoint x="-65" y="190" as="sourcePoint" />
            <mxPoint x="-50" y="220" as="targetPoint" />
            <Array as="points" />
          </mxGeometry>
        </mxCell>
        <mxCell id="oWDYErXDNjj5TqssKDUu-13" value="tName" style="ellipse;whiteSpace=wrap;html=1;rounded=0;sketch=0;fontColor=#000000;strokeColor=#AF45ED;fillColor=#F694C1;" vertex="1" parent="1">
          <mxGeometry x="-200" y="210" width="60" height="30" as="geometry" />
        </mxCell>
        <mxCell id="oWDYErXDNjj5TqssKDUu-14" value="Tid" style="ellipse;whiteSpace=wrap;html=1;rounded=0;sketch=0;fontColor=#000000;strokeColor=#AF45ED;fillColor=#F694C1;" vertex="1" parent="1">
          <mxGeometry x="-250" y="240" width="60" height="30" as="geometry" />
        </mxCell>
        <mxCell id="oWDYErXDNjj5TqssKDUu-15" value="location" style="ellipse;whiteSpace=wrap;html=1;rounded=0;sketch=0;fontColor=#000000;strokeColor=#AF45ED;fillColor=#F694C1;" vertex="1" parent="1">
          <mxGeometry x="-210" y="280" width="60" height="30" as="geometry" />
        </mxCell>
        <mxCell id="oWDYErXDNjj5TqssKDUu-16" value="" style="endArrow=none;html=1;fontColor=#000000;strokeColor=#60E696;fillColor=#F694C1;entryX=1;entryY=0.5;entryDx=0;entryDy=0;exitX=0.25;exitY=0;exitDx=0;exitDy=0;" edge="1" parent="1" source="oWDYErXDNjj5TqssKDUu-8" target="oWDYErXDNjj5TqssKDUu-13">
          <mxGeometry width="50" height="50" relative="1" as="geometry">
            <mxPoint x="-90" y="265" as="sourcePoint" />
            <mxPoint x="-90" y="220" as="targetPoint" />
            <Array as="points" />
          </mxGeometry>
        </mxCell>
        <mxCell id="oWDYErXDNjj5TqssKDUu-17" value="" style="endArrow=none;html=1;fontColor=#000000;strokeColor=#60E696;fillColor=#F694C1;entryX=1;entryY=0.5;entryDx=0;entryDy=0;exitX=0;exitY=0.5;exitDx=0;exitDy=0;" edge="1" parent="1" source="oWDYErXDNjj5TqssKDUu-8" target="oWDYErXDNjj5TqssKDUu-14">
          <mxGeometry width="50" height="50" relative="1" as="geometry">
            <mxPoint x="-100" y="270" as="sourcePoint" />
            <mxPoint x="-130" y="235" as="targetPoint" />
            <Array as="points" />
          </mxGeometry>
        </mxCell>
        <mxCell id="oWDYErXDNjj5TqssKDUu-18" value="" style="endArrow=none;html=1;fontColor=#000000;strokeColor=#60E696;fillColor=#F694C1;entryX=0.983;entryY=0.3;entryDx=0;entryDy=0;entryPerimeter=0;exitX=0;exitY=0.75;exitDx=0;exitDy=0;" edge="1" parent="1" source="oWDYErXDNjj5TqssKDUu-8" target="oWDYErXDNjj5TqssKDUu-15">
          <mxGeometry width="50" height="50" relative="1" as="geometry">
            <mxPoint x="-100" y="273" as="sourcePoint" />
            <mxPoint x="-180" y="265" as="targetPoint" />
            <Array as="points" />
          </mxGeometry>
        </mxCell>
        <mxCell id="oWDYErXDNjj5TqssKDUu-19" value="Tickets" style="rounded=0;whiteSpace=wrap;html=1;sketch=0;fontColor=#000000;strokeColor=#AF45ED;fillColor=#F694C1;" vertex="1" parent="1">
          <mxGeometry x="64" y="255" width="90" height="35" as="geometry" />
        </mxCell>
        <mxCell id="oWDYErXDNjj5TqssKDUu-21" value="sells" style="rhombus;whiteSpace=wrap;html=1;rounded=0;sketch=0;fontColor=#000000;strokeColor=#AF45ED;fillColor=#F694C1;" vertex="1" parent="1">
          <mxGeometry x="64" y="180" width="72" height="30" as="geometry" />
        </mxCell>
        <mxCell id="oWDYErXDNjj5TqssKDUu-22" value="" style="endArrow=none;html=1;fontColor=#000000;strokeColor=#60E696;fillColor=#F694C1;entryX=0.5;entryY=1;entryDx=0;entryDy=0;" edge="1" parent="1">
          <mxGeometry width="50" height="50" relative="1" as="geometry">
            <mxPoint x="100" y="190" as="sourcePoint" />
            <mxPoint x="100" y="140" as="targetPoint" />
          </mxGeometry>
        </mxCell>
        <mxCell id="oWDYErXDNjj5TqssKDUu-23" value="" style="endArrow=none;html=1;fontColor=#000000;strokeColor=#60E696;fillColor=#F694C1;exitX=0.5;exitY=1;exitDx=0;exitDy=0;entryX=0.422;entryY=0.014;entryDx=0;entryDy=0;entryPerimeter=0;" edge="1" parent="1" source="oWDYErXDNjj5TqssKDUu-21" target="oWDYErXDNjj5TqssKDUu-19">
          <mxGeometry width="50" height="50" relative="1" as="geometry">
            <mxPoint x="110" y="190" as="sourcePoint" />
            <mxPoint x="100" y="240" as="targetPoint" />
            <Array as="points" />
          </mxGeometry>
        </mxCell>
        <mxCell id="oWDYErXDNjj5TqssKDUu-25" value="workfor" style="rhombus;whiteSpace=wrap;html=1;rounded=0;sketch=0;fontColor=#000000;strokeColor=#AF45ED;fillColor=#F694C1;" vertex="1" parent="1">
          <mxGeometry x="-10" y="150" width="50" height="30" as="geometry" />
        </mxCell>
        <mxCell id="oWDYErXDNjj5TqssKDUu-26" value="" style="endArrow=none;html=1;fontColor=#000000;strokeColor=#60E696;fillColor=#F694C1;exitX=0.5;exitY=0;exitDx=0;exitDy=0;entryX=0;entryY=0.5;entryDx=0;entryDy=0;" edge="1" parent="1" source="oWDYErXDNjj5TqssKDUu-25">
          <mxGeometry width="50" height="50" relative="1" as="geometry">
            <mxPoint x="140" y="200" as="sourcePoint" />
            <mxPoint x="60" y="125" as="targetPoint" />
            <Array as="points">
              <mxPoint x="20" y="125" />
            </Array>
          </mxGeometry>
        </mxCell>
        <mxCell id="oWDYErXDNjj5TqssKDUu-28" value="Admin" style="rounded=0;whiteSpace=wrap;html=1;sketch=0;fontColor=#000000;strokeColor=#AF45ED;fillColor=#F694C1;" vertex="1" parent="1">
          <mxGeometry x="62" y="100" width="78" height="30" as="geometry" />
        </mxCell>
        <mxCell id="oWDYErXDNjj5TqssKDUu-29" value="Admin_id" style="ellipse;whiteSpace=wrap;html=1;rounded=0;sketch=0;fontColor=#000000;strokeColor=#AF45ED;fillColor=#F694C1;" vertex="1" parent="1">
          <mxGeometry x="30" y="50" width="60" height="30" as="geometry" />
        </mxCell>
        <mxCell id="oWDYErXDNjj5TqssKDUu-30" value="password" style="ellipse;whiteSpace=wrap;html=1;rounded=0;sketch=0;fontColor=#000000;strokeColor=#AF45ED;fillColor=#F694C1;" vertex="1" parent="1">
          <mxGeometry x="110" y="50" width="60" height="30" as="geometry" />
        </mxCell>
        <mxCell id="oWDYErXDNjj5TqssKDUu-31" value="" style="endArrow=none;html=1;fontColor=#000000;strokeColor=#60E696;fillColor=#F694C1;entryX=0.4;entryY=1.033;entryDx=0;entryDy=0;entryPerimeter=0;exitX=0.25;exitY=0;exitDx=0;exitDy=0;" edge="1" parent="1" source="oWDYErXDNjj5TqssKDUu-28" target="oWDYErXDNjj5TqssKDUu-29">
          <mxGeometry width="50" height="50" relative="1" as="geometry">
            <mxPoint x="80" y="110" as="sourcePoint" />
            <mxPoint x="60" y="90" as="targetPoint" />
          </mxGeometry>
        </mxCell>
        <mxCell id="oWDYErXDNjj5TqssKDUu-32" value="" style="endArrow=none;html=1;fontColor=#000000;strokeColor=#60E696;fillColor=#F694C1;entryX=0;entryY=1;entryDx=0;entryDy=0;" edge="1" parent="1" target="oWDYErXDNjj5TqssKDUu-30">
          <mxGeometry width="50" height="50" relative="1" as="geometry">
            <mxPoint x="101" y="100" as="sourcePoint" />
            <mxPoint x="64" y="90.99000000000001" as="targetPoint" />
          </mxGeometry>
        </mxCell>
        <mxCell id="oWDYErXDNjj5TqssKDUu-33" value="has" style="rhombus;whiteSpace=wrap;html=1;rounded=0;sketch=0;fontColor=#000000;strokeColor=#AF45ED;fillColor=#F694C1;" vertex="1" parent="1">
          <mxGeometry x="-20" y="255" width="60" height="30" as="geometry" />
        </mxCell>
        <mxCell id="oWDYErXDNjj5TqssKDUu-35" value="" style="endArrow=none;html=1;fontColor=#000000;strokeColor=#60E696;fillColor=#F694C1;exitX=1;exitY=0.5;exitDx=0;exitDy=0;entryX=0;entryY=0.5;entryDx=0;entryDy=0;" edge="1" parent="1" source="oWDYErXDNjj5TqssKDUu-8" target="oWDYErXDNjj5TqssKDUu-33">
          <mxGeometry width="50" height="50" relative="1" as="geometry">
            <mxPoint x="140" y="200" as="sourcePoint" />
            <mxPoint x="-20" y="270" as="targetPoint" />
            <Array as="points" />
          </mxGeometry>
        </mxCell>
        <mxCell id="oWDYErXDNjj5TqssKDUu-36" value="" style="endArrow=none;html=1;fontColor=#000000;strokeColor=#60E696;fillColor=#F694C1;exitX=1;exitY=0.5;exitDx=0;exitDy=0;entryX=0;entryY=0.5;entryDx=0;entryDy=0;" edge="1" parent="1" source="oWDYErXDNjj5TqssKDUu-33" target="oWDYErXDNjj5TqssKDUu-19">
          <mxGeometry width="50" height="50" relative="1" as="geometry">
            <mxPoint x="140" y="200" as="sourcePoint" />
            <mxPoint x="190" y="150" as="targetPoint" />
            <Array as="points" />
          </mxGeometry>
        </mxCell>
        <mxCell id="oWDYErXDNjj5TqssKDUu-38" value="has" style="rhombus;whiteSpace=wrap;html=1;rounded=0;sketch=0;fontColor=#000000;strokeColor=#AF45ED;fillColor=#F694C1;" vertex="1" parent="1">
          <mxGeometry x="200" y="255" width="70" height="30" as="geometry" />
        </mxCell>
        <mxCell id="oWDYErXDNjj5TqssKDUu-39" value="" style="endArrow=none;html=1;fontColor=#000000;strokeColor=#60E696;fillColor=#F694C1;exitX=1;exitY=0.5;exitDx=0;exitDy=0;entryX=0;entryY=0.5;entryDx=0;entryDy=0;" edge="1" parent="1" source="oWDYErXDNjj5TqssKDUu-19" target="oWDYErXDNjj5TqssKDUu-38">
          <mxGeometry width="50" height="50" relative="1" as="geometry">
            <mxPoint x="140" y="200" as="sourcePoint" />
            <mxPoint x="200" y="250" as="targetPoint" />
          </mxGeometry>
        </mxCell>
        <mxCell id="oWDYErXDNjj5TqssKDUu-40" value="show" style="rounded=0;whiteSpace=wrap;html=1;sketch=0;fontColor=#000000;strokeColor=#AF45ED;fillColor=#F694C1;" vertex="1" parent="1">
          <mxGeometry x="320" y="255" width="70" height="30" as="geometry" />
        </mxCell>
        <mxCell id="oWDYErXDNjj5TqssKDUu-41" value="" style="endArrow=none;html=1;fontColor=#000000;strokeColor=#60E696;fillColor=#F694C1;exitX=1;exitY=0.5;exitDx=0;exitDy=0;entryX=0;entryY=0.5;entryDx=0;entryDy=0;" edge="1" parent="1" source="oWDYErXDNjj5TqssKDUu-38" target="oWDYErXDNjj5TqssKDUu-40">
          <mxGeometry width="50" height="50" relative="1" as="geometry">
            <mxPoint x="140" y="200" as="sourcePoint" />
            <mxPoint x="310" y="260" as="targetPoint" />
          </mxGeometry>
        </mxCell>
        <mxCell id="oWDYErXDNjj5TqssKDUu-42" value="st_time&lt;span style=&quot;color: rgba(0 , 0 , 0 , 0) ; font-family: monospace ; font-size: 0px&quot;&gt;%3CmxGraphModel%3E%3Croot%3E%3CmxCell%20id%3D%220%22%2F%3E%3CmxCell%20id%3D%221%22%20parent%3D%220%22%2F%3E%3CmxCell%20id%3D%222%22%20value%3D%22%22%20style%3D%22endArrow%3Dnone%3Bhtml%3D1%3BfontColor%3D%23000000%3BstrokeColor%3D%2360E696%3BfillColor%3D%23F694C1%3BexitX%3D1%3BexitY%3D0.5%3BexitDx%3D0%3BexitDy%3D0%3BentryX%3D0.5%3BentryY%3D1%3BentryDx%3D0%3BentryDy%3D0%3B%22%20edge%3D%221%22%20parent%3D%221%22%3E%3CmxGeometry%20width%3D%2250%22%20height%3D%2250%22%20relative%3D%221%22%20as%3D%22geometry%22%3E%3CmxPoint%20x%3D%22110%22%20y%3D%22295%22%20as%3D%22sourcePoint%22%2F%3E%3CmxPoint%20x%3D%22165%22%20y%3D%22170%22%20as%3D%22targetPoint%22%2F%3E%3CArray%20as%3D%22points%22%3E%3CmxPoint%20x%3D%22160%22%20y%3D%22295%22%2F%3E%3C%2FArray%3E%3C%2FmxGeometry%3E%3C%2FmxCell%3E%3C%2Froot%3E%3C%2FmxGraphModel%3E&lt;/span&gt;" style="ellipse;whiteSpace=wrap;html=1;rounded=0;sketch=0;fontColor=#000000;strokeColor=#AF45ED;fillColor=#F694C1;" vertex="1" parent="1">
          <mxGeometry x="280" y="190" width="60" height="30" as="geometry" />
        </mxCell>
        <mxCell id="oWDYErXDNjj5TqssKDUu-43" value="endtime" style="ellipse;whiteSpace=wrap;html=1;rounded=0;sketch=0;fontColor=#000000;strokeColor=#AF45ED;fillColor=#F694C1;" vertex="1" parent="1">
          <mxGeometry x="330" y="160" width="60" height="30" as="geometry" />
        </mxCell>
        <mxCell id="oWDYErXDNjj5TqssKDUu-44" value="show id" style="ellipse;whiteSpace=wrap;html=1;rounded=0;sketch=0;fontColor=#000000;strokeColor=#AF45ED;fillColor=#F694C1;" vertex="1" parent="1">
          <mxGeometry x="390" y="190" width="60" height="30" as="geometry" />
        </mxCell>
        <mxCell id="oWDYErXDNjj5TqssKDUu-45" value="language" style="ellipse;whiteSpace=wrap;html=1;rounded=0;sketch=0;fontColor=#000000;strokeColor=#AF45ED;fillColor=#F694C1;" vertex="1" parent="1">
          <mxGeometry x="430" y="250" width="80" height="35" as="geometry" />
        </mxCell>
        <mxCell id="oWDYErXDNjj5TqssKDUu-46" value="" style="endArrow=none;html=1;fontColor=#000000;strokeColor=#60E696;fillColor=#F694C1;entryX=0.667;entryY=1.033;entryDx=0;entryDy=0;entryPerimeter=0;exitX=0.25;exitY=0;exitDx=0;exitDy=0;" edge="1" parent="1" source="oWDYErXDNjj5TqssKDUu-40" target="oWDYErXDNjj5TqssKDUu-42">
          <mxGeometry width="50" height="50" relative="1" as="geometry">
            <mxPoint x="340" y="250" as="sourcePoint" />
            <mxPoint x="190" y="160" as="targetPoint" />
          </mxGeometry>
        </mxCell>
        <mxCell id="oWDYErXDNjj5TqssKDUu-47" value="" style="endArrow=none;html=1;fontColor=#000000;strokeColor=#60E696;fillColor=#F694C1;exitX=0.617;exitY=0;exitDx=0;exitDy=0;exitPerimeter=0;entryX=0.5;entryY=1;entryDx=0;entryDy=0;" edge="1" parent="1" source="oWDYErXDNjj5TqssKDUu-40" target="oWDYErXDNjj5TqssKDUu-43">
          <mxGeometry width="50" height="50" relative="1" as="geometry">
            <mxPoint x="330" y="240" as="sourcePoint" />
            <mxPoint x="190" y="160" as="targetPoint" />
          </mxGeometry>
        </mxCell>
        <mxCell id="oWDYErXDNjj5TqssKDUu-48" value="" style="endArrow=none;html=1;fontColor=#000000;strokeColor=#60E696;fillColor=#F694C1;entryX=0;entryY=1;entryDx=0;entryDy=0;exitX=0.714;exitY=0.167;exitDx=0;exitDy=0;exitPerimeter=0;" edge="1" parent="1" source="oWDYErXDNjj5TqssKDUu-40" target="oWDYErXDNjj5TqssKDUu-44">
          <mxGeometry width="50" height="50" relative="1" as="geometry">
            <mxPoint x="370" y="250" as="sourcePoint" />
            <mxPoint x="190" y="160" as="targetPoint" />
          </mxGeometry>
        </mxCell>
        <mxCell id="oWDYErXDNjj5TqssKDUu-49" value="" style="endArrow=none;html=1;fontColor=#000000;strokeColor=#60E696;fillColor=#F694C1;exitX=1;exitY=0.5;exitDx=0;exitDy=0;entryX=0;entryY=0.5;entryDx=0;entryDy=0;" edge="1" parent="1" source="oWDYErXDNjj5TqssKDUu-40" target="oWDYErXDNjj5TqssKDUu-45">
          <mxGeometry width="50" height="50" relative="1" as="geometry">
            <mxPoint x="140" y="210" as="sourcePoint" />
            <mxPoint x="420" y="268" as="targetPoint" />
          </mxGeometry>
        </mxCell>
        <mxCell id="oWDYErXDNjj5TqssKDUu-50" value="admin id" style="ellipse;whiteSpace=wrap;html=1;rounded=0;sketch=0;fontColor=#000000;strokeColor=#AF45ED;fillColor=#F694C1;" vertex="1" parent="1">
          <mxGeometry x="30" y="215" width="48" height="20" as="geometry" />
        </mxCell>
        <mxCell id="oWDYErXDNjj5TqssKDUu-51" value="" style="endArrow=none;html=1;fontColor=#000000;strokeColor=#60E696;fillColor=#F694C1;exitX=0.75;exitY=0;exitDx=0;exitDy=0;entryX=0.5;entryY=1;entryDx=0;entryDy=0;" edge="1" parent="1" source="oWDYErXDNjj5TqssKDUu-8" target="oWDYErXDNjj5TqssKDUu-25">
          <mxGeometry width="50" height="50" relative="1" as="geometry">
            <mxPoint x="-20" y="290" as="sourcePoint" />
            <mxPoint y="220" as="targetPoint" />
            <Array as="points">
              <mxPoint y="240" />
            </Array>
          </mxGeometry>
        </mxCell>
        <mxCell id="oWDYErXDNjj5TqssKDUu-52" value="" style="endArrow=none;html=1;fontColor=#000000;strokeColor=#60E696;fillColor=#F694C1;entryX=0.5;entryY=1;entryDx=0;entryDy=0;" edge="1" parent="1" target="oWDYErXDNjj5TqssKDUu-50">
          <mxGeometry width="50" height="50" relative="1" as="geometry">
            <mxPoint x="100" y="250" as="sourcePoint" />
            <mxPoint x="190" y="310" as="targetPoint" />
          </mxGeometry>
        </mxCell>
        <mxCell id="oWDYErXDNjj5TqssKDUu-53" value="Discount" style="rounded=0;whiteSpace=wrap;html=1;sketch=0;fontColor=#000000;strokeColor=#AF45ED;fillColor=#F694C1;" vertex="1" parent="1">
          <mxGeometry x="258" y="100" width="62" height="30" as="geometry" />
        </mxCell>
        <mxCell id="oWDYErXDNjj5TqssKDUu-54" value="Offers" style="rhombus;whiteSpace=wrap;html=1;rounded=0;sketch=0;fontColor=#000000;strokeColor=#AF45ED;fillColor=#F694C1;" vertex="1" parent="1">
          <mxGeometry x="160" y="160" width="60" height="30" as="geometry" />
        </mxCell>
        <mxCell id="oWDYErXDNjj5TqssKDUu-55" value="" style="endArrow=none;html=1;fontColor=#000000;strokeColor=#60E696;fillColor=#F694C1;entryX=0.5;entryY=1;entryDx=0;entryDy=0;" edge="1" parent="1" target="oWDYErXDNjj5TqssKDUu-54">
          <mxGeometry width="50" height="50" relative="1" as="geometry">
            <mxPoint x="100" y="250" as="sourcePoint" />
            <mxPoint x="190" y="130" as="targetPoint" />
          </mxGeometry>
        </mxCell>
        <mxCell id="oWDYErXDNjj5TqssKDUu-56" value="" style="endArrow=none;html=1;fontColor=#000000;strokeColor=#60E696;fillColor=#F694C1;exitX=0.5;exitY=0;exitDx=0;exitDy=0;entryX=0;entryY=0.5;entryDx=0;entryDy=0;" edge="1" parent="1" source="oWDYErXDNjj5TqssKDUu-54" target="oWDYErXDNjj5TqssKDUu-53">
          <mxGeometry width="50" height="50" relative="1" as="geometry">
            <mxPoint x="200" y="160" as="sourcePoint" />
            <mxPoint x="230" y="115" as="targetPoint" />
            <Array as="points">
              <mxPoint x="200" y="115" />
            </Array>
          </mxGeometry>
        </mxCell>
        <mxCell id="oWDYErXDNjj5TqssKDUu-57" value="offer id" style="ellipse;whiteSpace=wrap;html=1;rounded=0;sketch=0;fontColor=#000000;strokeColor=#AF45ED;fillColor=#F694C1;" vertex="1" parent="1">
          <mxGeometry x="180" y="30" width="70" height="30" as="geometry" />
        </mxCell>
        <mxCell id="oWDYErXDNjj5TqssKDUu-58" value="m_name" style="ellipse;whiteSpace=wrap;html=1;rounded=0;sketch=0;fontColor=#000000;strokeColor=#AF45ED;fillColor=#F694C1;" vertex="1" parent="1">
          <mxGeometry x="250" y="-10" width="70" height="30" as="geometry" />
        </mxCell>
        <mxCell id="oWDYErXDNjj5TqssKDUu-59" value="price" style="ellipse;whiteSpace=wrap;html=1;rounded=0;sketch=0;fontColor=#000000;strokeColor=#AF45ED;fillColor=#F694C1;" vertex="1" parent="1">
          <mxGeometry x="325" y="30" width="70" height="30" as="geometry" />
        </mxCell>
        <mxCell id="oWDYErXDNjj5TqssKDUu-60" value="" style="endArrow=none;html=1;fontColor=#000000;strokeColor=#60E696;fillColor=#F694C1;entryX=0.5;entryY=1;entryDx=0;entryDy=0;exitX=0.25;exitY=0;exitDx=0;exitDy=0;" edge="1" parent="1" source="oWDYErXDNjj5TqssKDUu-53" target="oWDYErXDNjj5TqssKDUu-57">
          <mxGeometry width="50" height="50" relative="1" as="geometry">
            <mxPoint x="260" y="90" as="sourcePoint" />
            <mxPoint x="190" y="130" as="targetPoint" />
          </mxGeometry>
        </mxCell>
        <mxCell id="oWDYErXDNjj5TqssKDUu-62" value="" style="endArrow=none;html=1;fontColor=#000000;strokeColor=#60E696;fillColor=#F694C1;entryX=0.5;entryY=1;entryDx=0;entryDy=0;" edge="1" parent="1" target="oWDYErXDNjj5TqssKDUu-58">
          <mxGeometry width="50" height="50" relative="1" as="geometry">
            <mxPoint x="284" y="100" as="sourcePoint" />
            <mxPoint x="225" y="70" as="targetPoint" />
          </mxGeometry>
        </mxCell>
        <mxCell id="oWDYErXDNjj5TqssKDUu-63" value="" style="endArrow=none;html=1;fontColor=#000000;strokeColor=#60E696;fillColor=#F694C1;exitX=0.75;exitY=0;exitDx=0;exitDy=0;entryX=0;entryY=1;entryDx=0;entryDy=0;" edge="1" parent="1" source="oWDYErXDNjj5TqssKDUu-53" target="oWDYErXDNjj5TqssKDUu-59">
          <mxGeometry width="50" height="50" relative="1" as="geometry">
            <mxPoint x="293.5" y="120" as="sourcePoint" />
            <mxPoint x="294" y="70" as="targetPoint" />
          </mxGeometry>
        </mxCell>
        <mxCell id="oWDYErXDNjj5TqssKDUu-64" value="has" style="rhombus;whiteSpace=wrap;html=1;rounded=0;sketch=0;fontColor=#000000;strokeColor=#AF45ED;fillColor=#F694C1;" vertex="1" parent="1">
          <mxGeometry x="325" y="350" width="70" height="40" as="geometry" />
        </mxCell>
        <mxCell id="oWDYErXDNjj5TqssKDUu-66" value="movie" style="rounded=0;whiteSpace=wrap;html=1;sketch=0;fontColor=#000000;strokeColor=#AF45ED;fillColor=#F694C1;" vertex="1" parent="1">
          <mxGeometry x="320" y="480" width="80" height="40" as="geometry" />
        </mxCell>
        <mxCell id="oWDYErXDNjj5TqssKDUu-67" value="" style="endArrow=none;html=1;fontColor=#000000;strokeColor=#60E696;fillColor=#F694C1;entryX=0.5;entryY=1;entryDx=0;entryDy=0;exitX=0.5;exitY=0;exitDx=0;exitDy=0;" edge="1" parent="1" source="oWDYErXDNjj5TqssKDUu-66" target="oWDYErXDNjj5TqssKDUu-64">
          <mxGeometry width="50" height="50" relative="1" as="geometry">
            <mxPoint x="310" y="450" as="sourcePoint" />
            <mxPoint x="300" y="380" as="targetPoint" />
          </mxGeometry>
        </mxCell>
        <mxCell id="oWDYErXDNjj5TqssKDUu-68" value="" style="endArrow=none;html=1;fontColor=#000000;strokeColor=#60E696;fillColor=#F694C1;exitX=0.5;exitY=0;exitDx=0;exitDy=0;" edge="1" parent="1" source="oWDYErXDNjj5TqssKDUu-64">
          <mxGeometry width="50" height="50" relative="1" as="geometry">
            <mxPoint x="360" y="330" as="sourcePoint" />
            <mxPoint x="360" y="290" as="targetPoint" />
          </mxGeometry>
        </mxCell>
        <mxCell id="oWDYErXDNjj5TqssKDUu-69" value="m_name" style="ellipse;whiteSpace=wrap;html=1;rounded=0;sketch=0;fontColor=#000000;strokeColor=#AF45ED;fillColor=#F694C1;" vertex="1" parent="1">
          <mxGeometry x="200" y="540" width="70" height="30" as="geometry" />
        </mxCell>
        <mxCell id="oWDYErXDNjj5TqssKDUu-70" value="release_date" style="ellipse;whiteSpace=wrap;html=1;rounded=0;sketch=0;fontColor=#000000;strokeColor=#AF45ED;fillColor=#F694C1;" vertex="1" parent="1">
          <mxGeometry x="254" y="600" width="70" height="30" as="geometry" />
        </mxCell>
        <mxCell id="oWDYErXDNjj5TqssKDUu-71" value="actors" style="ellipse;whiteSpace=wrap;html=1;rounded=0;sketch=0;fontColor=#000000;strokeColor=#AF45ED;fillColor=#F694C1;" vertex="1" parent="1">
          <mxGeometry x="410" y="590" width="70" height="30" as="geometry" />
        </mxCell>
        <mxCell id="oWDYErXDNjj5TqssKDUu-72" value="m_id" style="ellipse;whiteSpace=wrap;html=1;rounded=0;sketch=0;fontColor=#000000;strokeColor=#AF45ED;fillColor=#F694C1;" vertex="1" parent="1">
          <mxGeometry x="430" y="540" width="70" height="30" as="geometry" />
        </mxCell>
        <mxCell id="oWDYErXDNjj5TqssKDUu-73" value="director" style="ellipse;whiteSpace=wrap;html=1;rounded=0;sketch=0;fontColor=#000000;strokeColor=#AF45ED;fillColor=#F694C1;" vertex="1" parent="1">
          <mxGeometry x="325" y="640" width="70" height="30" as="geometry" />
        </mxCell>
        <mxCell id="oWDYErXDNjj5TqssKDUu-74" value="" style="endArrow=none;html=1;fontColor=#000000;strokeColor=#60E696;fillColor=#F694C1;entryX=0.338;entryY=1;entryDx=0;entryDy=0;entryPerimeter=0;exitX=1;exitY=0.5;exitDx=0;exitDy=0;" edge="1" parent="1" source="oWDYErXDNjj5TqssKDUu-69" target="oWDYErXDNjj5TqssKDUu-66">
          <mxGeometry width="50" height="50" relative="1" as="geometry">
            <mxPoint x="140" y="570" as="sourcePoint" />
            <mxPoint x="190" y="520" as="targetPoint" />
          </mxGeometry>
        </mxCell>
        <mxCell id="oWDYErXDNjj5TqssKDUu-75" value="" style="endArrow=none;html=1;fontColor=#000000;strokeColor=#60E696;fillColor=#F694C1;entryX=0.5;entryY=1;entryDx=0;entryDy=0;exitX=0.629;exitY=-0.1;exitDx=0;exitDy=0;exitPerimeter=0;" edge="1" parent="1" source="oWDYErXDNjj5TqssKDUu-70" target="oWDYErXDNjj5TqssKDUu-66">
          <mxGeometry width="50" height="50" relative="1" as="geometry">
            <mxPoint x="280" y="565" as="sourcePoint" />
            <mxPoint x="357.03999999999996" y="530" as="targetPoint" />
          </mxGeometry>
        </mxCell>
        <mxCell id="oWDYErXDNjj5TqssKDUu-76" value="" style="endArrow=none;html=1;fontColor=#000000;strokeColor=#60E696;fillColor=#F694C1;exitX=0.5;exitY=0;exitDx=0;exitDy=0;" edge="1" parent="1" source="oWDYErXDNjj5TqssKDUu-73">
          <mxGeometry width="50" height="50" relative="1" as="geometry">
            <mxPoint x="360" y="630" as="sourcePoint" />
            <mxPoint x="360" y="520" as="targetPoint" />
          </mxGeometry>
        </mxCell>
        <mxCell id="oWDYErXDNjj5TqssKDUu-77" value="" style="endArrow=none;html=1;fontColor=#000000;strokeColor=#60E696;fillColor=#F694C1;exitX=0.057;exitY=0.267;exitDx=0;exitDy=0;entryX=0.5;entryY=1;entryDx=0;entryDy=0;exitPerimeter=0;" edge="1" parent="1" source="oWDYErXDNjj5TqssKDUu-71" target="oWDYErXDNjj5TqssKDUu-66">
          <mxGeometry width="50" height="50" relative="1" as="geometry">
            <mxPoint x="370" y="650" as="sourcePoint" />
            <mxPoint x="370" y="530" as="targetPoint" />
          </mxGeometry>
        </mxCell>
        <mxCell id="oWDYErXDNjj5TqssKDUu-78" value="" style="endArrow=none;html=1;fontColor=#000000;strokeColor=#60E696;fillColor=#F694C1;entryX=0.675;entryY=1.05;entryDx=0;entryDy=0;entryPerimeter=0;" edge="1" parent="1" target="oWDYErXDNjj5TqssKDUu-66">
          <mxGeometry width="50" height="50" relative="1" as="geometry">
            <mxPoint x="429" y="555" as="sourcePoint" />
            <mxPoint x="380" y="540" as="targetPoint" />
          </mxGeometry>
        </mxCell>
        <mxCell id="oWDYErXDNjj5TqssKDUu-79" value="ticketNo" style="ellipse;whiteSpace=wrap;html=1;rounded=0;sketch=0;fontColor=#000000;strokeColor=#AF45ED;fillColor=#F694C1;" vertex="1" parent="1">
          <mxGeometry x="165" y="215" width="50" height="20" as="geometry" />
        </mxCell>
        <mxCell id="oWDYErXDNjj5TqssKDUu-80" value="" style="endArrow=none;html=1;fontColor=#000000;strokeColor=#60E696;fillColor=#F694C1;entryX=0.38;entryY=0.95;entryDx=0;entryDy=0;entryPerimeter=0;" edge="1" parent="1" target="oWDYErXDNjj5TqssKDUu-79">
          <mxGeometry width="50" height="50" relative="1" as="geometry">
            <mxPoint x="100" y="250" as="sourcePoint" />
            <mxPoint x="180" y="240" as="targetPoint" />
          </mxGeometry>
        </mxCell>
        <mxCell id="oWDYErXDNjj5TqssKDUu-81" value="show_id" style="ellipse;whiteSpace=wrap;html=1;rounded=0;sketch=0;fontColor=#000000;strokeColor=#AF45ED;fillColor=#F694C1;" vertex="1" parent="1">
          <mxGeometry x="-12" y="320" width="52" height="20" as="geometry" />
        </mxCell>
        <mxCell id="oWDYErXDNjj5TqssKDUu-82" value="show_date" style="ellipse;whiteSpace=wrap;html=1;rounded=0;sketch=0;fontColor=#000000;strokeColor=#AF45ED;fillColor=#F694C1;" vertex="1" parent="1">
          <mxGeometry y="360" width="62" height="20" as="geometry" />
        </mxCell>
        <mxCell id="oWDYErXDNjj5TqssKDUu-83" value="seat_no" style="ellipse;whiteSpace=wrap;html=1;rounded=0;sketch=0;fontColor=#000000;strokeColor=#AF45ED;fillColor=#F694C1;" vertex="1" parent="1">
          <mxGeometry x="30" y="394" width="60" height="20" as="geometry" />
        </mxCell>
        <mxCell id="oWDYErXDNjj5TqssKDUu-84" value="price" style="ellipse;whiteSpace=wrap;html=1;rounded=0;sketch=0;fontColor=#000000;strokeColor=#AF45ED;fillColor=#F694C1;" vertex="1" parent="1">
          <mxGeometry x="136" y="394" width="52" height="20" as="geometry" />
        </mxCell>
        <mxCell id="oWDYErXDNjj5TqssKDUu-85" value="t_id" style="ellipse;whiteSpace=wrap;html=1;rounded=0;sketch=0;fontColor=#000000;strokeColor=#AF45ED;fillColor=#F694C1;" vertex="1" parent="1">
          <mxGeometry x="170" y="360" width="52" height="20" as="geometry" />
        </mxCell>
        <mxCell id="oWDYErXDNjj5TqssKDUu-86" value="hall_no" style="ellipse;whiteSpace=wrap;html=1;rounded=0;sketch=0;fontColor=#000000;strokeColor=#AF45ED;fillColor=#F694C1;" vertex="1" parent="1">
          <mxGeometry x="180" y="320" width="52" height="20" as="geometry" />
        </mxCell>
        <mxCell id="oWDYErXDNjj5TqssKDUu-88" value="" style="endArrow=none;html=1;fontColor=#000000;strokeColor=#60E696;fillColor=#F694C1;exitX=1;exitY=0.5;exitDx=0;exitDy=0;" edge="1" parent="1" source="oWDYErXDNjj5TqssKDUu-81">
          <mxGeometry width="50" height="50" relative="1" as="geometry">
            <mxPoint x="140" y="380" as="sourcePoint" />
            <mxPoint x="110" y="290" as="targetPoint" />
          </mxGeometry>
        </mxCell>
        <mxCell id="oWDYErXDNjj5TqssKDUu-89" value="" style="endArrow=none;html=1;fontColor=#000000;strokeColor=#60E696;fillColor=#F694C1;exitX=1;exitY=0.5;exitDx=0;exitDy=0;" edge="1" parent="1" source="oWDYErXDNjj5TqssKDUu-82">
          <mxGeometry width="50" height="50" relative="1" as="geometry">
            <mxPoint x="70" y="360" as="sourcePoint" />
            <mxPoint x="110" y="290" as="targetPoint" />
          </mxGeometry>
        </mxCell>
        <mxCell id="oWDYErXDNjj5TqssKDUu-90" value="" style="endArrow=none;html=1;fontColor=#000000;strokeColor=#60E696;fillColor=#F694C1;exitX=0.617;exitY=0;exitDx=0;exitDy=0;exitPerimeter=0;" edge="1" parent="1" source="oWDYErXDNjj5TqssKDUu-83">
          <mxGeometry width="50" height="50" relative="1" as="geometry">
            <mxPoint x="72" y="390" as="sourcePoint" />
            <mxPoint x="110" y="290" as="targetPoint" />
          </mxGeometry>
        </mxCell>
        <mxCell id="oWDYErXDNjj5TqssKDUu-91" value="" style="endArrow=none;html=1;fontColor=#000000;strokeColor=#60E696;fillColor=#F694C1;exitX=0.462;exitY=0.3;exitDx=0;exitDy=0;exitPerimeter=0;" edge="1" parent="1" source="oWDYErXDNjj5TqssKDUu-84">
          <mxGeometry width="50" height="50" relative="1" as="geometry">
            <mxPoint x="160" y="390" as="sourcePoint" />
            <mxPoint x="110" y="290" as="targetPoint" />
          </mxGeometry>
        </mxCell>
        <mxCell id="oWDYErXDNjj5TqssKDUu-92" value="" style="endArrow=none;html=1;fontColor=#000000;strokeColor=#60E696;fillColor=#F694C1;exitX=0;exitY=0.5;exitDx=0;exitDy=0;" edge="1" parent="1" source="oWDYErXDNjj5TqssKDUu-85">
          <mxGeometry width="50" height="50" relative="1" as="geometry">
            <mxPoint x="170.0239999999999" y="410" as="sourcePoint" />
            <mxPoint x="110" y="290" as="targetPoint" />
          </mxGeometry>
        </mxCell>
        <mxCell id="oWDYErXDNjj5TqssKDUu-93" value="" style="endArrow=none;html=1;fontColor=#000000;strokeColor=#60E696;fillColor=#F694C1;exitX=0;exitY=0.5;exitDx=0;exitDy=0;" edge="1" parent="1" source="oWDYErXDNjj5TqssKDUu-86">
          <mxGeometry width="50" height="50" relative="1" as="geometry">
            <mxPoint x="180" y="380" as="sourcePoint" />
            <mxPoint x="110" y="290" as="targetPoint" />
          </mxGeometry>
        </mxCell>
        <mxCell id="oWDYErXDNjj5TqssKDUu-94" value="booking" style="rhombus;whiteSpace=wrap;html=1;rounded=0;sketch=0;fontColor=#000000;strokeColor=#AF45ED;fillColor=#F694C1;" vertex="1" parent="1">
          <mxGeometry x="-80" y="440" width="80" height="40" as="geometry" />
        </mxCell>
        <mxCell id="oWDYErXDNjj5TqssKDUu-95" value="" style="endArrow=none;html=1;fontColor=#000000;strokeColor=#60E696;fillColor=#F694C1;exitX=1;exitY=0.5;exitDx=0;exitDy=0;" edge="1" parent="1" source="oWDYErXDNjj5TqssKDUu-94">
          <mxGeometry width="50" height="50" relative="1" as="geometry">
            <mxPoint x="140" y="380" as="sourcePoint" />
            <mxPoint x="110" y="290" as="targetPoint" />
            <Array as="points">
              <mxPoint x="110" y="460" />
            </Array>
          </mxGeometry>
        </mxCell>
        <mxCell id="oWDYErXDNjj5TqssKDUu-96" value="booking&lt;br&gt;date" style="ellipse;whiteSpace=wrap;html=1;rounded=0;sketch=0;fontColor=#000000;strokeColor=#AF45ED;fillColor=#F694C1;" vertex="1" parent="1">
          <mxGeometry x="-80" y="380" width="74" height="30" as="geometry" />
        </mxCell>
        <mxCell id="oWDYErXDNjj5TqssKDUu-97" value="ticket_no" style="ellipse;whiteSpace=wrap;html=1;rounded=0;sketch=0;fontColor=#000000;strokeColor=#AF45ED;fillColor=#F694C1;" vertex="1" parent="1">
          <mxGeometry x="-120" y="510" width="60" height="20" as="geometry" />
        </mxCell>
        <mxCell id="oWDYErXDNjj5TqssKDUu-98" value="cid" style="ellipse;whiteSpace=wrap;html=1;rounded=0;sketch=0;fontColor=#000000;strokeColor=#AF45ED;fillColor=#F694C1;" vertex="1" parent="1">
          <mxGeometry x="-16" y="510" width="60" height="20" as="geometry" />
        </mxCell>
        <mxCell id="oWDYErXDNjj5TqssKDUu-99" value="" style="endArrow=none;html=1;fontColor=#000000;strokeColor=#60E696;fillColor=#F694C1;exitX=0.5;exitY=0;exitDx=0;exitDy=0;" edge="1" parent="1" source="oWDYErXDNjj5TqssKDUu-97">
          <mxGeometry width="50" height="50" relative="1" as="geometry">
            <mxPoint x="-50" y="470" as="sourcePoint" />
            <mxPoint x="-40" y="480" as="targetPoint" />
          </mxGeometry>
        </mxCell>
        <mxCell id="oWDYErXDNjj5TqssKDUu-100" value="" style="endArrow=none;html=1;fontColor=#000000;strokeColor=#60E696;fillColor=#F694C1;entryX=0.5;entryY=1;entryDx=0;entryDy=0;" edge="1" parent="1" target="oWDYErXDNjj5TqssKDUu-94">
          <mxGeometry width="50" height="50" relative="1" as="geometry">
            <mxPoint x="10" y="510" as="sourcePoint" />
            <mxPoint x="-36.960000000000036" y="491" as="targetPoint" />
          </mxGeometry>
        </mxCell>
        <mxCell id="oWDYErXDNjj5TqssKDUu-101" value="" style="endArrow=none;html=1;fontColor=#000000;strokeColor=#60E696;fillColor=#F694C1;entryX=0.5;entryY=1;entryDx=0;entryDy=0;" edge="1" parent="1" source="oWDYErXDNjj5TqssKDUu-94" target="oWDYErXDNjj5TqssKDUu-96">
          <mxGeometry width="50" height="50" relative="1" as="geometry">
            <mxPoint x="140" y="380" as="sourcePoint" />
            <mxPoint x="-50" y="420" as="targetPoint" />
          </mxGeometry>
        </mxCell>
        <mxCell id="oWDYErXDNjj5TqssKDUu-102" value="Customer" style="rounded=0;whiteSpace=wrap;html=1;sketch=0;fontColor=#000000;strokeColor=#AF45ED;fillColor=#F694C1;" vertex="1" parent="1">
          <mxGeometry x="-290" y="445" width="90" height="30" as="geometry" />
        </mxCell>
        <mxCell id="oWDYErXDNjj5TqssKDUu-103" value="" style="endArrow=none;html=1;fontColor=#000000;strokeColor=#60E696;fillColor=#F694C1;exitX=1;exitY=0.5;exitDx=0;exitDy=0;entryX=0;entryY=0.5;entryDx=0;entryDy=0;" edge="1" parent="1" source="oWDYErXDNjj5TqssKDUu-102" target="oWDYErXDNjj5TqssKDUu-94">
          <mxGeometry width="50" height="50" relative="1" as="geometry">
            <mxPoint x="-180" y="450" as="sourcePoint" />
            <mxPoint x="-30" y="330" as="targetPoint" />
          </mxGeometry>
        </mxCell>
        <mxCell id="oWDYErXDNjj5TqssKDUu-104" value="cname" style="ellipse;whiteSpace=wrap;html=1;rounded=0;sketch=0;fontColor=#000000;strokeColor=#AF45ED;fillColor=#F694C1;" vertex="1" parent="1">
          <mxGeometry x="-262.5" y="355" width="85" height="30" as="geometry" />
        </mxCell>
        <mxCell id="oWDYErXDNjj5TqssKDUu-105" value="emailid" style="ellipse;whiteSpace=wrap;html=1;rounded=0;sketch=0;fontColor=#000000;strokeColor=#AF45ED;fillColor=#F694C1;" vertex="1" parent="1">
          <mxGeometry x="-400" y="505" width="85" height="30" as="geometry" />
        </mxCell>
        <mxCell id="oWDYErXDNjj5TqssKDUu-106" value="password" style="ellipse;whiteSpace=wrap;html=1;rounded=0;sketch=0;fontColor=#000000;strokeColor=#AF45ED;fillColor=#F694C1;" vertex="1" parent="1">
          <mxGeometry x="-440" y="445" width="85" height="30" as="geometry" />
        </mxCell>
        <mxCell id="oWDYErXDNjj5TqssKDUu-107" value="cid" style="ellipse;whiteSpace=wrap;html=1;rounded=0;sketch=0;fontColor=#000000;strokeColor=#AF45ED;fillColor=#F694C1;" vertex="1" parent="1">
          <mxGeometry x="-375" y="390" width="85" height="30" as="geometry" />
        </mxCell>
        <mxCell id="oWDYErXDNjj5TqssKDUu-108" value="phoneno" style="ellipse;whiteSpace=wrap;html=1;rounded=0;sketch=0;fontColor=#000000;strokeColor=#AF45ED;fillColor=#F694C1;" vertex="1" parent="1">
          <mxGeometry x="-291" y="530" width="85" height="30" as="geometry" />
        </mxCell>
        <mxCell id="oWDYErXDNjj5TqssKDUu-109" value="" style="endArrow=none;html=1;fontColor=#000000;strokeColor=#60E696;fillColor=#F694C1;entryX=0.5;entryY=1;entryDx=0;entryDy=0;exitX=0.5;exitY=0;exitDx=0;exitDy=0;" edge="1" parent="1" source="oWDYErXDNjj5TqssKDUu-102" target="oWDYErXDNjj5TqssKDUu-104">
          <mxGeometry width="50" height="50" relative="1" as="geometry">
            <mxPoint x="-240" y="440" as="sourcePoint" />
            <mxPoint x="-220" y="390" as="targetPoint" />
          </mxGeometry>
        </mxCell>
        <mxCell id="oWDYErXDNjj5TqssKDUu-110" value="" style="endArrow=none;html=1;fontColor=#000000;strokeColor=#60E696;fillColor=#F694C1;entryX=0.5;entryY=1;entryDx=0;entryDy=0;exitX=0;exitY=0.25;exitDx=0;exitDy=0;" edge="1" parent="1" source="oWDYErXDNjj5TqssKDUu-102" target="oWDYErXDNjj5TqssKDUu-107">
          <mxGeometry width="50" height="50" relative="1" as="geometry">
            <mxPoint x="-235" y="455" as="sourcePoint" />
            <mxPoint x="-210" y="395" as="targetPoint" />
          </mxGeometry>
        </mxCell>
        <mxCell id="oWDYErXDNjj5TqssKDUu-111" value="" style="endArrow=none;html=1;fontColor=#000000;strokeColor=#60E696;fillColor=#F694C1;entryX=1;entryY=0.5;entryDx=0;entryDy=0;exitX=0;exitY=0.5;exitDx=0;exitDy=0;" edge="1" parent="1" source="oWDYErXDNjj5TqssKDUu-102" target="oWDYErXDNjj5TqssKDUu-106">
          <mxGeometry width="50" height="50" relative="1" as="geometry">
            <mxPoint x="-300" y="460" as="sourcePoint" />
            <mxPoint x="-350" y="463" as="targetPoint" />
          </mxGeometry>
        </mxCell>
        <mxCell id="oWDYErXDNjj5TqssKDUu-112" value="" style="endArrow=none;html=1;fontColor=#000000;strokeColor=#60E696;fillColor=#F694C1;exitX=0;exitY=0.75;exitDx=0;exitDy=0;" edge="1" parent="1" source="oWDYErXDNjj5TqssKDUu-102">
          <mxGeometry width="50" height="50" relative="1" as="geometry">
            <mxPoint x="-280" y="470" as="sourcePoint" />
            <mxPoint x="-320" y="510" as="targetPoint" />
          </mxGeometry>
        </mxCell>
        <mxCell id="oWDYErXDNjj5TqssKDUu-113" value="" style="endArrow=none;html=1;fontColor=#000000;strokeColor=#60E696;fillColor=#F694C1;entryX=0.5;entryY=0;entryDx=0;entryDy=0;" edge="1" parent="1" target="oWDYErXDNjj5TqssKDUu-108">
          <mxGeometry width="50" height="50" relative="1" as="geometry">
            <mxPoint x="-248" y="478" as="sourcePoint" />
            <mxPoint x="-310" y="520" as="targetPoint" />
          </mxGeometry>
        </mxCell>
        <mxCell id="oWDYErXDNjj5TqssKDUu-114" value="1" style="text;html=1;strokeColor=none;fillColor=none;align=center;verticalAlign=middle;whiteSpace=wrap;rounded=0;sketch=0;fontColor=#000000;" vertex="1" parent="1">
          <mxGeometry x="-206" y="440" width="40" height="20" as="geometry" />
        </mxCell>
        <mxCell id="oWDYErXDNjj5TqssKDUu-115" value="M" style="text;html=1;strokeColor=none;fillColor=none;align=center;verticalAlign=middle;whiteSpace=wrap;rounded=0;sketch=0;fontColor=#000000;" vertex="1" parent="1">
          <mxGeometry x="-105" y="440" width="40" height="20" as="geometry" />
        </mxCell>
        <mxCell id="oWDYErXDNjj5TqssKDUu-116" value="M" style="text;html=1;strokeColor=none;fillColor=none;align=center;verticalAlign=middle;whiteSpace=wrap;rounded=0;sketch=0;fontColor=#000000;" vertex="1" parent="1">
          <mxGeometry x="-5" y="440" width="40" height="20" as="geometry" />
        </mxCell>
        <mxCell id="oWDYErXDNjj5TqssKDUu-117" value="1" style="text;html=1;strokeColor=none;fillColor=none;align=center;verticalAlign=middle;whiteSpace=wrap;rounded=0;sketch=0;fontColor=#000000;" vertex="1" parent="1">
          <mxGeometry x="284" y="250" width="40" height="20" as="geometry" />
        </mxCell>
        <mxCell id="oWDYErXDNjj5TqssKDUu-118" value="M" style="text;html=1;strokeColor=none;fillColor=none;align=center;verticalAlign=middle;whiteSpace=wrap;rounded=0;sketch=0;fontColor=#000000;" vertex="1" parent="1">
          <mxGeometry x="148" y="250" width="40" height="20" as="geometry" />
        </mxCell>
        <mxCell id="oWDYErXDNjj5TqssKDUu-119" value="M" style="text;html=1;strokeColor=none;fillColor=none;align=center;verticalAlign=middle;whiteSpace=wrap;rounded=0;sketch=0;fontColor=#000000;" vertex="1" parent="1">
          <mxGeometry x="355" y="285" width="40" height="20" as="geometry" />
        </mxCell>
        <mxCell id="oWDYErXDNjj5TqssKDUu-120" value="1" style="text;html=1;strokeColor=none;fillColor=none;align=center;verticalAlign=middle;whiteSpace=wrap;rounded=0;sketch=0;fontColor=#000000;" vertex="1" parent="1">
          <mxGeometry x="355" y="460" width="40" height="20" as="geometry" />
        </mxCell>
        <mxCell id="oWDYErXDNjj5TqssKDUu-121" value="M" style="text;html=1;strokeColor=none;fillColor=none;align=center;verticalAlign=middle;whiteSpace=wrap;rounded=0;sketch=0;fontColor=#000000;" vertex="1" parent="1">
          <mxGeometry x="-52" y="250" width="40" height="20" as="geometry" />
        </mxCell>
        <mxCell id="oWDYErXDNjj5TqssKDUu-122" value="M" style="text;html=1;strokeColor=none;fillColor=none;align=center;verticalAlign=middle;whiteSpace=wrap;rounded=0;sketch=0;fontColor=#000000;" vertex="1" parent="1">
          <mxGeometry x="35" y="250" width="40" height="20" as="geometry" />
        </mxCell>
        <mxCell id="oWDYErXDNjj5TqssKDUu-123" value="1" style="text;html=1;strokeColor=none;fillColor=none;align=center;verticalAlign=middle;whiteSpace=wrap;rounded=0;sketch=0;fontColor=#000000;" vertex="1" parent="1">
          <mxGeometry x="-92" y="230" width="40" height="20" as="geometry" />
        </mxCell>
        <mxCell id="oWDYErXDNjj5TqssKDUu-124" value="M" style="text;html=1;strokeColor=none;fillColor=none;align=center;verticalAlign=middle;whiteSpace=wrap;rounded=0;sketch=0;fontColor=#000000;" vertex="1" parent="1">
          <mxGeometry x="-120" y="140" width="40" height="20" as="geometry" />
        </mxCell>
      </root>
    </mxGraphModel>
  </diagram>
</mxfile>
